<?xml version="1.0" standalone="no"?>
<!DOCTYPE svg PUBLIC "-//W3C//DTD SVG 20010904//EN"
 "http://www.w3.org/TR/2001/REC-SVG-20010904/DTD/svg10.dtd">
<svg version="1.0" xmlns="http://www.w3.org/2000/svg"
 width="764.000000pt" height="260.000000pt" viewBox="0 0 764.000000 260.000000"
 preserveAspectRatio="xMidYMid meet">

<g transform="translate(0.000000,260.000000) scale(0.100000,-0.100000)"
fill="#008522" stroke="none">
<path d="M570 2503 c-114 -19 -235 -87 -318 -178 -67 -73 -105 -138 -140 -240
l-27 -80 0 -710 c0 -656 1 -715 18 -775 58 -207 189 -356 375 -429 l67 -26
2623 -3 c1718 -1 2636 1 2660 8 49 13 108 63 134 113 11 23 25 76 30 120 14
133 64 214 151 251 25 10 142 15 492 21 414 6 466 9 523 27 177 54 312 194
380 393 l27 80 0 450 c0 409 -2 456 -19 520 -59 219 -231 395 -427 439 -54 12
-559 15 -3294 19 -1777 2 -3241 2 -3255 0z m6012 -465 l3 -113 118 -3 118 -3
-3 -112 -3 -112 -117 -3 -118 -3 0 -175 c0 -172 0 -175 25 -199 19 -20 34 -25
72 -25 26 1 59 7 73 15 48 27 50 23 50 -95 l0 -109 -32 -17 c-20 -10 -67 -19
-118 -22 -155 -8 -254 39 -306 145 -29 57 -29 60 -32 270 l-4 212 -81 3 -82 3
-3 112 -3 112 83 3 83 3 3 113 3 112 134 0 134 0 3 -112z m-4496 -99 c125 -23
241 -106 291 -207 25 -50 28 -68 27 -147 0 -49 -6 -102 -12 -117 l-12 -28
-284 0 -285 0 9 -30 c22 -75 83 -120 164 -120 56 0 103 18 135 54 24 26 27 26
158 26 107 0 135 -3 139 -14 9 -25 -56 -135 -108 -181 -86 -77 -191 -115 -318
-115 -202 0 -346 85 -423 248 -31 65 -32 72 -32 197 l0 131 37 76 c45 90 103
148 192 189 101 47 205 60 322 38z m1020 -4 c63 -19 109 -61 141 -131 23 -52
25 -65 21 -158 -3 -73 -10 -114 -26 -148 l-21 -48 -130 0 c-83 0 -131 4 -131
10 0 6 9 39 21 73 26 78 21 133 -16 164 -31 27 -57 29 -94 7 -67 -40 -81 -104
-81 -386 l0 -228 -135 0 -135 0 0 415 0 415 135 0 135 0 0 -45 c0 -25 4 -45 8
-45 4 0 24 16 43 36 74 77 162 100 265 69z m785 1 c224 -48 350 -220 336 -461
-13 -245 -168 -398 -417 -412 -101 -6 -174 7 -258 47 -162 77 -254 266 -225
466 38 267 279 420 564 360z m1098 -15 c48 -25 87 -72 115 -138 19 -44 21 -73
24 -370 l3 -323 -135 0 -136 0 0 274 c0 297 -4 327 -51 351 -78 41 -164 -7
-194 -109 -11 -38 -15 -106 -15 -283 l0 -233 -135 0 -135 0 0 415 0 415 135 0
135 0 0 -45 c0 -25 4 -45 8 -45 4 0 23 16 42 35 34 35 82 62 135 76 50 13 159
2 204 -20z m810 14 c120 -29 216 -100 269 -200 24 -45 27 -60 27 -156 0 -75
-4 -111 -14 -122 -12 -15 -45 -17 -292 -17 -265 0 -279 -1 -279 -19 0 -27 40
-82 79 -108 25 -17 48 -23 88 -23 59 0 95 15 132 54 24 25 27 26 158 26 157 0
162 -3 119 -86 -74 -142 -223 -224 -406 -224 -234 0 -405 128 -449 338 -45
214 43 414 221 501 104 51 227 64 347 36z m-4329 -77 l-1 -63 -214 -250 c-117
-137 -210 -253 -207 -257 4 -4 104 -9 222 -10 l215 -3 3 -92 3 -93 -381 0
-380 0 0 93 0 92 180 208 c99 114 180 211 180 217 0 6 -60 10 -165 10 l-165 0
0 105 0 105 355 0 355 0 0 -62z m1470 -1028 c11 -11 20 -29 20 -40 0 -16 -7
-20 -30 -20 -20 0 -30 5 -30 15 0 22 -18 18 -25 -5 -9 -29 2 -40 41 -40 30 0
34 -3 34 -25 0 -22 -4 -25 -40 -25 l-40 0 0 -95 0 -95 -30 0 -30 0 0 95 c0 88
-1 95 -20 95 -15 0 -20 7 -20 25 0 18 5 25 19 25 14 0 20 10 25 39 10 66 82
95 126 51z m911 4 c9 -11 10 -20 2 -32 -15 -24 -44 -27 -59 -7 -28 38 27 75
57 39z m-1601 -164 l0 -170 -30 0 -30 0 0 170 0 170 30 0 30 0 0 -170z m110 0
l0 -170 -25 0 -25 0 0 170 0 170 25 0 25 0 0 -170z m-1018 108 c3 -29 7 -33
36 -36 26 -3 32 -7 32 -28 0 -21 -5 -24 -35 -24 l-35 0 0 -64 c0 -69 14 -92
51 -83 17 5 20 1 17 -21 -3 -23 -8 -27 -39 -30 -24 -2 -43 3 -60 17 -21 17
-24 29 -27 100 -4 72 -6 81 -23 81 -14 0 -19 7 -19 25 0 18 5 25 20 25 16 0
20 7 20 35 0 32 2 35 29 35 26 0 30 -4 33 -32z m2228 -3 c0 -33 2 -35 36 -35
31 0 35 -3 32 -22 -2 -18 -11 -24 -36 -26 l-33 -3 3 -72 c3 -72 3 -72 31 -72
24 1 28 -3 25 -25 -3 -21 -9 -25 -40 -28 -61 -5 -78 21 -78 118 0 79 0 80 -25
80 -34 0 -37 47 -2 52 17 2 23 11 25 36 3 28 7 32 33 32 27 0 29 -3 29 -35z
m682 3 c3 -29 7 -33 36 -36 26 -3 32 -7 32 -28 0 -21 -5 -24 -35 -24 l-35 0 0
-64 c0 -69 14 -92 51 -83 17 5 20 1 17 -21 -3 -23 -8 -27 -39 -30 -24 -2 -43
3 -60 17 -21 17 -24 29 -27 100 -4 72 -6 81 -23 81 -14 0 -19 7 -19 25 0 18 5
25 20 25 16 0 20 7 20 35 0 32 2 35 29 35 26 0 30 -4 33 -32z m1230 0 c3 -29
7 -33 36 -36 26 -3 32 -7 32 -28 0 -21 -5 -24 -35 -24 l-35 0 0 -64 c0 -69 14
-92 51 -83 17 5 20 1 17 -21 -3 -23 -8 -27 -39 -30 -24 -2 -43 3 -60 17 -21
17 -24 29 -27 100 -4 72 -6 81 -23 81 -14 0 -19 7 -19 25 0 18 5 25 20 25 16
0 20 7 20 35 0 32 2 35 29 35 26 0 30 -4 33 -32z m-4553 -54 c18 -23 21 -41
21 -125 l0 -99 -30 0 -30 0 0 88 c0 90 -8 112 -41 112 -10 0 -27 -12 -38 -26
-17 -22 -21 -41 -21 -100 l0 -74 -30 0 -30 0 0 120 0 120 30 0 c21 0 30 -5 30
-16 0 -13 5 -12 26 5 38 30 87 28 113 -5z m252 -3 c28 -28 29 -33 29 -125 0
-96 0 -96 -25 -96 -16 0 -25 6 -25 16 0 13 -5 12 -26 -5 -58 -45 -144 -13
-144 54 0 48 30 69 106 75 l63 5 -12 25 c-16 33 -61 39 -79 11 -8 -13 -23 -21
-40 -21 -31 0 -33 7 -17 44 14 31 43 44 97 45 35 1 49 -5 73 -28z m704 5 c9
-14 15 -39 13 -58 -3 -29 -7 -33 -34 -36 -29 -3 -30 -1 -26 26 3 21 -1 31 -14
36 -34 13 -49 -19 -53 -109 l-3 -85 -29 0 -29 0 0 120 0 120 30 0 c17 0 30 -5
30 -11 0 -5 10 -3 22 5 34 24 75 20 93 -8z m226 -5 c28 -28 29 -33 29 -125 0
-96 0 -96 -25 -96 -16 0 -25 6 -25 16 0 13 -5 12 -26 -5 -35 -28 -97 -28 -124
-1 -12 12 -20 33 -20 54 0 50 37 76 107 76 51 0 54 2 51 22 -2 14 -14 26 -32
33 -24 8 -31 6 -46 -13 -23 -27 -70 -30 -70 -4 0 41 45 71 108 72 35 0 49 -6
73 -29z m1028 15 c39 -21 51 -56 51 -151 0 -84 0 -85 -25 -85 -16 0 -25 6 -25
16 0 13 -5 12 -26 -5 -85 -67 -205 32 -128 104 22 21 37 25 85 25 63 0 75 13
43 44 -24 24 -74 17 -74 -10 0 -9 -11 -14 -30 -14 -25 0 -30 4 -30 24 0 55 94
85 159 52z m254 2 c28 -15 46 -38 47 -60 0 -27 -56 -25 -63 3 -5 17 -12 20
-44 17 -30 -2 -38 -7 -38 -23 0 -15 11 -22 50 -31 72 -17 85 -24 96 -50 11
-30 -3 -67 -33 -88 -29 -20 -100 -21 -139 -1 -30 16 -54 58 -43 76 11 18 49 9
59 -13 8 -18 18 -23 50 -23 33 0 40 3 40 19 0 16 -12 23 -55 34 -66 16 -90 36
-90 72 0 48 40 79 103 80 21 0 48 -5 60 -12z m701 -1 c23 -17 35 -75 36 -164
l0 -73 -29 0 -29 0 -4 90 c-2 67 -7 93 -18 100 -22 14 -35 12 -61 -9 -21 -17
-24 -30 -27 -100 l-4 -81 -29 0 -29 0 0 120 0 120 30 0 c21 0 30 -5 30 -16 0
-13 5 -12 26 5 30 24 81 27 108 8z m440 2 c32 -15 59 -66 54 -104 l-3 -30 -87
-3 c-49 -1 -88 -7 -88 -12 0 -17 39 -50 59 -50 10 0 30 9 44 20 28 22 77 27
77 8 -1 -18 -31 -54 -57 -67 -56 -29 -153 2 -173 55 -26 66 -3 151 48 178 32
18 92 20 126 5z m270 -8 c12 -13 16 -32 14 -58 -3 -34 -6 -38 -33 -41 -28 -3
-30 -1 -30 29 0 37 -13 45 -40 25 -17 -12 -21 -29 -24 -100 l-3 -86 -29 0 -29
0 0 120 0 120 30 0 c20 0 30 -5 30 -15 0 -12 4 -11 20 5 25 25 72 26 94 1z
m247 0 c22 -18 24 -28 27 -125 l4 -106 -31 0 -31 0 0 81 c0 44 -5 89 -10 100
-14 25 -45 24 -70 -1 -17 -17 -20 -33 -20 -100 l0 -80 -30 0 -30 0 0 120 0
120 30 0 c17 0 30 -5 30 -11 0 -5 10 -3 22 5 31 22 81 20 109 -3z m276 -16
c29 -29 34 -40 31 -72 l-3 -38 -87 -3 c-49 -1 -88 -7 -88 -12 0 -17 39 -50 59
-50 10 0 30 9 44 20 47 37 97 21 64 -20 -52 -67 -164 -66 -211 2 -18 26 -22
119 -5 149 17 32 70 59 118 59 36 0 49 -6 78 -35z m-3825 -65 c2 -67 7 -93 18
-100 23 -15 38 -12 60 10 17 17 20 33 20 100 l0 80 30 0 30 0 0 -120 0 -120
-30 0 c-16 0 -30 5 -30 11 0 7 -10 5 -25 -5 -34 -23 -69 -20 -102 8 -26 22
-27 29 -31 125 l-4 101 30 0 30 0 4 -90z m984 6 c15 -47 31 -83 34 -81 4 2 18
40 31 85 24 78 25 80 56 80 l32 0 -50 -147 c-56 -167 -84 -207 -142 -201 -27
2 -33 8 -35 31 -3 25 -1 28 16 23 12 -4 28 1 42 12 l24 19 -47 125 c-26 68
-47 127 -47 131 0 4 13 7 29 7 28 0 31 -4 57 -84z m1364 -36 l0 -120 -30 0
-30 0 0 120 0 120 30 0 30 0 0 -120z"/>
<path d="M1917 1716 c-20 -7 -44 -20 -53 -27 -17 -14 -44 -62 -44 -79 0 -6 52
-10 150 -10 142 0 150 1 150 20 0 33 -23 71 -52 86 -42 22 -108 26 -151 10z"/>
<path d="M3725 1713 c-36 -9 -75 -44 -98 -86 -33 -63 -31 -185 3 -246 32 -57
67 -82 123 -88 118 -14 197 71 197 212 0 153 -95 240 -225 208z"/>
<path d="M5620 1721 c-45 -14 -71 -35 -91 -73 -10 -21 -19 -40 -19 -43 0 -3
68 -5 150 -5 l150 0 0 29 c0 71 -99 119 -190 92z"/>
<path d="M1060 585 c-19 -22 -5 -45 28 -45 29 0 62 26 62 48 0 18 -75 15 -90
-3z"/>
<path d="M1992 591 c-25 -15 -10 -46 24 -49 32 -3 71 28 59 47 -7 13 -64 14
-83 2z"/>
<path d="M3035 586 c-27 -19 -13 -46 25 -46 32 0 75 34 65 50 -9 15 -68 12
-90 -4z"/>
<path d="M4433 688 c-27 -36 -25 -38 36 -38 34 0 61 4 61 9 0 33 -76 56 -97
29z"/>
<path d="M5203 688 c-28 -36 -25 -38 38 -38 l61 0 -14 23 c-17 25 -69 35 -85
15z"/>
</g>
</svg>
