<?xml version="1.0" encoding="UTF-8" standalone="no"?>
<!--part of the rodentia icon theme by sixsixfive released under CC0 (https://creativecommons.org/publicdomain/zero/1.0/) on openclipart-->
<svg xmlns="http://www.w3.org/2000/svg" xmlns:xlink="http://www.w3.org/1999/xlink" viewBox="0 0 48 48">
 <defs id="0">
  <linearGradient id="8">
   <stop id="F" stop-color="#eeeeec" stop-opacity="0.8"/>
   <stop id="G" offset="1" stop-color="#eeeeec" stop-opacity="0"/>
  </linearGradient>
  <linearGradient id="9">
   <stop id="H" stop-color="#fff"/>
   <stop id="I" offset="1" stop-color="#fff" stop-opacity="0"/>
  </linearGradient>
  <linearGradient id="A">
   <stop id="J" stop-color="#eee"/>
   <stop id="K" offset="1" stop-color="#dcdcdc"/>
  </linearGradient>
  <radialGradient cx="60.05" cy="51.39" r="15.03" id="B" xlink:href="#A" gradientUnits="userSpaceOnUse" gradientTransform="matrix(-1.404511,1.1888571,-1,-1.1813958,199.73811,11.750541)"/>
  <linearGradient x1="12.267" y1="-27.851" x2="32.11" y2="23.531" id="C" xlink:href="#9" gradientUnits="userSpaceOnUse"/>
  <linearGradient y1="6.688" x2="0" y2="40.31" id="D" xlink:href="#8" gradientUnits="userSpaceOnUse"/>
  <filter x="-0.074" y="-0.311" width="1.149" height="1.621" color-interpolation-filters="sRGB" id="E">
   <feGaussianBlur stdDeviation="1.30133" id="L"/>
  </filter>
 </defs>
 <rect width="42" height="10.05" x="2.805" y="31.751" transform="matrix(0.97194081,0,0,1,0.86294501,0)" id="1" opacity="0.8" fill="#2e3436" filter="url(#E)" rx="4.096"/>
 <rect width="42" height="36" x="2.805" y="5.504" id="2" fill="#ce5c00" rx="5"/>
 <path d="M 7.8125,6.6875 C 5.6763752,6.6875 4,8.3638752 4,10.5 l 0,26 c 0,2.136125 1.6763752,3.8125 3.8125,3.8125 l 32,0 c 2.136125,0 3.8125,-1.676375 3.8125,-3.8125 l 0,-26 c 0,-2.1361248 -1.676375,-3.8125 -3.8125,-3.8125 l -32,0 z" id="3" fill="#f57900"/>
 <path d="m 10.90625,9.0625 a 1.1382879,1.1382879 0 0 0 -0.9375,1.125 l 0,4.40625 a 1.1382879,1.1382879 0 0 0 1.09375,1.125 c 11.00323,0.330026 19.87879,9.610376 20.15625,21.125 a 1.1382879,1.1382879 0 0 0 1.125,1.09375 l 4.1875,0 a 1.1382879,1.1382879 0 0 0 1.125,-1.15625 C 37.377646,22.901053 27.524519,11.429259 14.65625,9.34375 13.480766,9.1532613 12.300405,9.0924375 11.125,9.0625 a 1.1382879,1.1382879 0 0 0 -0.21875,0 z m 0,9.375 a 1.1382879,1.1382879 0 0 0 -0.9375,1.125 l 0,4.25 a 1.1382879,1.1382879 0 0 0 1.0625,1.125 c 6.144669,0.300836 11.077675,5.458646 11.34375,11.90625 a 1.1382879,1.1382879 0 0 0 1.125,1.0625 l 4.03125,0 A 1.1382879,1.1382879 0 0 0 28.65625,36.75 C 28.370972,27.561756 21.837239,19.980388 13.28125,18.59375 12.528512,18.471751 11.803284,18.464181 11.125,18.4375 a 1.1382879,1.1382879 0 0 0 -0.21875,0 z m 3.25,10.75 c -2.330795,-0.0065 -4.1875,1.963958 -4.1875,4.34375 0,2.379121 1.863301,4.337345 4.1875,4.34375 2.330835,0.0065 4.21875,-1.950809 4.21875,-4.34375 0,-2.247781 -1.647669,-4.111957 -3.78125,-4.34375 -0.272835,-0.02965 -0.354037,1.87e-4 -0.4375,0 z" id="4" fill="#ce5c00"/>
 <path d="m 11.086042,10.19777 0,4.394356 c 11.62289,0.348612 20.975593,10.121305 21.266808,22.20678 l 4.171117,0.01174 C 36.255925,23.45665 26.777356,12.462613 14.469931,10.467998 c -1.103268,-0.178786 -2.23799,-0.241054 -3.383889,-0.27024 z m 0,9.352697 0,4.25336 c 6.746741,0.330313 12.130356,5.968684 12.419346,12.97158 l 4.03012,0.01174 c -0.269135,-8.668305 -6.428887,-15.775727 -14.428532,-17.0722 -0.659585,-0.106901 -1.3389,-0.137663 -2.020934,-0.164492 z m 3.0784,10.750901 c -1.69231,-0.0047 -3.0784,1.416165 -3.0784,3.219393 0,1.803228 1.384495,3.226476 3.0784,3.231144 1.692311,0.0047 3.078402,-1.416166 3.078402,-3.219394 0,-1.690966 -1.22079,-3.063796 -2.761164,-3.231143 -0.07454,-0.0081 -0.184442,2.98e-4 -0.317238,0 z" id="5" fill="#eeeeec"/>
 <path d="M 7.8125,7.1875 C 5.9462137,7.1875 4.5,8.6337137 4.5,10.5 l 0,26 c 0,1.866286 1.4462137,3.3125 3.3125,3.3125 l 32,0 c 1.866286,0 3.3125,-1.446214 3.3125,-3.3125 l 0,-26 c 0,-1.8662863 -1.446214,-3.3125 -3.3125,-3.3125 l -32,0 z" id="6" fill="none" stroke="url(#D)"/>
 <path d="M 7.8125,6.6875 C 5.6763752,6.6875 4,8.3638752 4,10.5 l 0,13.03125 c 9.684284,-4.382503 24.297655,-7.02662 39.625,-7.46875 l 0,-5.5625 c 0,-2.1361248 -1.676375,-3.8125 -3.8125,-3.8125 l -32,0 z" id="7" fill="url(#C)"/>
</svg>
